<svg width="547" height="74" viewBox="0 0 547 74" fill="none" xmlns="http://www.w3.org/2000/svg">
<path fill-rule="evenodd" clip-rule="evenodd" d="M545.882 72.3585V56.7841H508.375V49.043H544.5V33.5608H508.375V26.1883H545.882V10.614H491.05V72.3585H545.882ZM509.095 26.9083H546.602V9.89398H490.33V73.0785H546.602V56.0641H509.095V49.763H545.22V32.8408H509.095V26.9083Z" fill="white"/>
<path fill-rule="evenodd" clip-rule="evenodd" d="M426.872 49.6132H445.637V52.2684C445.637 53.2816 445.731 53.9965 445.982 54.5349C446.215 55.0361 446.616 55.4504 447.394 55.7902C448.199 56.1419 449.382 56.401 451.128 56.567C452.865 56.7322 455.107 56.8014 458.003 56.8014C460.623 56.8014 462.641 56.7495 464.195 56.6307C465.757 56.5111 466.806 56.3266 467.512 56.081C468.203 55.8406 468.499 55.5655 468.653 55.2967C468.823 55.0011 468.895 54.5913 468.895 53.9272C468.895 53.4345 468.827 53.0783 468.697 52.8007C468.572 52.5345 468.365 52.2907 467.999 52.0598C467.215 51.5666 465.797 51.1863 463.257 50.863L463.253 50.8625L443.898 48.2819C438.036 47.4846 433.534 45.5022 430.496 42.3674C427.448 39.2227 425.95 34.9969 425.95 29.8745C425.95 24.7484 427.944 19.4891 432.829 15.5266C437.699 11.5756 445.368 8.97238 456.621 8.97238C466.526 8.97238 473.969 11.133 478.948 15.1449C483.952 19.1766 486.37 24.999 486.37 32.0863V33.3592H467.605V31.2569C467.605 30.1902 467.485 29.3958 467.191 28.7792C466.909 28.1892 466.437 27.6997 465.596 27.2991C464.733 26.888 463.493 26.5773 461.711 26.3737C459.936 26.1708 457.669 26.0788 454.778 26.0788C450.348 26.0788 447.782 26.3843 446.335 26.9608C445.634 27.2403 445.254 27.5617 445.038 27.8916C444.821 28.2233 444.715 28.6457 444.715 29.2294C444.715 30.0368 444.933 30.5107 445.401 30.8698C445.936 31.2797 446.882 31.6067 448.518 31.8339L448.524 31.8348L467.876 34.6915C475.537 35.8126 480.506 38.3516 483.557 41.7168C486.613 45.0877 487.66 49.1961 487.66 53.2821C487.66 58.7783 485.549 63.9946 480.729 67.8193C475.928 71.6291 468.514 74 458.003 74C448.493 74 440.718 72.3104 435.302 68.5493C429.841 64.7566 426.872 58.9217 426.872 50.8861V49.6132ZM463.348 50.1488L443.995 47.5685C432.476 46.0018 426.67 39.8274 426.67 29.8745C426.67 20.0138 434.319 9.69235 456.621 9.69235C476.171 9.69235 485.574 18.1939 485.649 31.9192C485.65 31.9748 485.65 32.0305 485.65 32.0863V32.6392H468.325V31.2569C468.325 26.8334 466.389 25.3589 454.778 25.3589C445.931 25.3589 443.995 26.5569 443.995 29.2294C443.995 31.1647 445.101 32.0863 448.419 32.547L467.772 35.4039C482.885 37.6156 486.94 45.3567 486.94 53.2821C486.94 63.8801 478.83 73.28 458.003 73.28C439.178 73.28 427.674 66.6004 427.592 51.0531C427.592 50.9976 427.592 50.9419 427.592 50.8861V50.3332H444.917V52.2684C444.917 56.4155 446.391 57.5213 458.003 57.5213C468.509 57.5213 469.615 56.6919 469.615 53.9272C469.615 51.7155 468.417 50.7939 463.348 50.1488Z" fill="white"/>
<path fill-rule="evenodd" clip-rule="evenodd" d="M380.041 72.3585V51.3469H387.137C393.864 51.3469 395.707 52.6371 397.919 57.2449L405.291 72.3585H425.289L417.64 56.8763C415.336 52.1763 413.309 49.1352 406.95 47.4764V46.5548C418.746 45.0803 423.63 39.2745 423.63 29.5059C423.63 17.4335 415.06 10.614 398.748 10.614H362.715V72.3585H380.041ZM408.252 47.099C413.622 46.2587 417.581 44.4497 420.237 41.6347C423.098 38.6035 424.35 34.5089 424.35 29.5059C424.35 23.282 422.13 18.3327 417.745 14.9619C413.389 11.6143 406.989 9.89398 398.748 9.89398H361.995V73.0785H380.761V52.0669H387.137C390.484 52.0669 392.461 52.3945 393.865 53.1936C395.244 53.9791 396.179 55.2834 397.27 57.5565L397.272 57.5606L404.841 73.0785H426.448L418.287 56.5594C417.131 54.2011 416.003 52.1687 414.319 50.5212C412.822 49.0565 410.922 47.93 408.252 47.099ZM380.041 26.1883H398.564C403.633 26.1883 405.476 27.3863 405.476 32.2706C405.476 37.5235 403.633 38.4451 398.564 38.4451H380.041V26.1883ZM380.761 37.7251H398.564C401.121 37.7251 402.595 37.475 403.467 36.7684C404.29 36.1016 404.756 34.8617 404.756 32.2706C404.756 29.8817 404.297 28.6475 403.46 27.9514C402.582 27.2211 401.096 26.9083 398.564 26.9083H380.761V37.7251Z" fill="white"/>
<path fill-rule="evenodd" clip-rule="evenodd" d="M357.791 72.3585V56.7841H320.283V49.043H356.408V33.5608H320.283V26.1883H357.791V10.614H302.958V72.3585H357.791ZM321.003 26.9083H358.511V9.89398H302.238V73.0785H358.511V56.0641H321.003V49.763H357.128V32.8408H321.003V26.9083Z" fill="white"/>
<path fill-rule="evenodd" clip-rule="evenodd" d="M251.435 72.3585H276.317L301.107 10.614H280.28L264.705 54.8488H263.507L247.564 10.614H226.645L251.435 72.3585ZM264.195 54.1289L279.77 9.89398H302.172L276.804 73.0785H250.948L225.58 9.89398H248.07L264.013 54.1289H264.195Z" fill="white"/>
<path fill-rule="evenodd" clip-rule="evenodd" d="M225.406 72.3585V56.7841H187.899V49.043H224.024V33.5608H187.899V26.1883H225.406V10.614H170.574V72.3585H225.406ZM188.619 26.9083H226.126V9.89398H169.854V73.0785H226.126V56.0641H188.619V49.763H224.744V32.8408H188.619V26.9083Z" fill="white"/>
<path fill-rule="evenodd" clip-rule="evenodd" d="M120.042 72.3585V48.2136L119.305 36.4176H120.503L128.336 48.5822L146.583 72.3585H165.014V10.614H147.689V34.4824L148.518 47.9371H147.32L138.289 33.7451L121.148 10.614H102.716V72.3585H120.042ZM147.715 47.2172L138.882 33.337L121.51 9.89398H101.997V73.0785H120.762V48.1911L120.071 37.1376H120.11L127.747 48.997L146.228 73.0785H165.734V9.89398H146.969V34.5045L147.752 47.2172H147.715Z" fill="white"/>
<path fill-rule="evenodd" clip-rule="evenodd" d="M97.1828 72.3585V10.614H79.8575V72.3585H97.1828ZM97.9028 73.0785H79.1375V9.89398H97.9028V73.0785Z" fill="white"/>
<path fill-rule="evenodd" clip-rule="evenodd" d="M76.0128 38.3356H55.2201V36.049C55.2201 32.6516 54.4182 30.4873 52.5732 29.1161C50.6646 27.6977 47.4851 27.0004 42.3932 27.0004C36.118 27.0004 32.4062 27.7559 30.2143 29.8121C28.0376 31.854 27.1702 35.3643 27.1702 41.4862C27.1702 47.6081 28.0376 51.1183 30.2143 53.1602C32.4062 55.2165 36.118 55.9719 42.3932 55.9719C47.4851 55.9719 50.6646 55.2747 52.5732 53.8562C54.4182 52.4851 55.2201 50.3207 55.2201 46.9234V44.6368H76.0128V46.9234C76.0128 55.3701 72.8181 62.1753 66.9281 66.8515C61.0593 71.5111 52.5881 74 42.1167 74C31.2416 74 22.5241 70.8241 16.5202 65.1281C10.5125 59.4285 7.29901 51.2782 7.29901 41.4862C7.29901 31.6941 10.5125 23.5438 16.5202 17.8442C22.5241 12.1482 31.2416 8.97238 42.1167 8.97238C52.5881 8.97238 61.0593 11.4613 66.9281 16.1208C72.8181 20.7971 76.0128 27.6023 76.0128 36.049V38.3356ZM8.01898 41.4862C8.01898 60.7468 20.6444 73.28 42.1167 73.28C62.8518 73.28 75.2929 63.4193 75.2929 46.9234V45.3567H55.9401V46.9234C55.9401 53.9272 52.6225 56.6919 42.3932 56.6919C29.86 56.6919 26.4502 53.7429 26.4502 41.4862C26.4502 29.2294 29.86 26.2804 42.3932 26.2804C52.6225 26.2804 55.9401 29.0451 55.9401 36.049V37.6156H75.2929V36.049C75.2929 19.553 62.8518 9.69235 42.1167 9.69235C20.6444 9.69235 8.01898 22.2256 8.01898 41.4862Z" fill="white"/>
<path d="M537.864 62.6661H483.031V0.921539H537.864V16.4959H500.356V23.8684H536.481V39.3506H500.356V47.0917H537.864V62.6661Z" fill="white"/>
<path d="M449.984 63.5877C431.092 63.5877 419.573 56.8603 419.573 41.1937V40.6408H436.898V42.5761C436.898 46.7231 438.373 47.829 449.984 47.829C460.49 47.829 461.596 46.9996 461.596 44.2349C461.596 42.0231 460.398 41.1016 455.329 40.4565L435.976 37.8761C424.457 36.3095 418.651 30.135 418.651 20.1822C418.651 10.3215 426.3 0 448.602 0C468.231 0 477.631 8.57051 477.631 22.3939V22.9468H460.306V21.5645C460.306 17.141 458.37 15.6665 446.759 15.6665C437.912 15.6665 435.976 16.8645 435.976 19.5371C435.976 21.4723 437.082 22.3939 440.4 22.8547L459.753 25.7115C474.866 27.9233 478.921 35.6644 478.921 43.5898C478.921 54.1877 470.811 63.5877 449.984 63.5877Z" fill="white"/>
<path d="M372.022 62.6661H354.696V0.921539H390.729C407.041 0.921539 415.611 7.74108 415.611 19.8135C415.611 29.5821 410.727 35.3879 398.931 36.8624V37.7839C405.29 39.4428 407.317 42.4839 409.621 47.1839L417.27 62.6661H397.272L389.9 47.5525C387.688 42.9447 385.845 41.6545 379.118 41.6545H372.022V62.6661ZM372.022 16.4959V28.7527H390.545C395.614 28.7527 397.457 27.8311 397.457 22.5782C397.457 17.6939 395.614 16.4959 390.545 16.4959H372.022Z" fill="white"/>
<path d="M349.772 62.6661H294.939V0.921539H349.772V16.4959H312.264V23.8684H348.389V39.3506H312.264V47.0917H349.772V62.6661Z" fill="white"/>
<path d="M268.298 62.6661H243.416L218.626 0.921539H239.545L255.488 45.1564H256.686L272.261 0.921539H293.088L268.298 62.6661Z" fill="white"/>
<path d="M217.387 62.6661H162.555V0.921539H217.387V16.4959H179.88V23.8684H216.005V39.3506H179.88V47.0917H217.387V62.6661Z" fill="#F3DC13"/>
<path d="M112.023 62.6661H94.6975V0.921539H113.129L130.27 24.0527L139.301 38.2447H140.499L139.67 24.7899V0.921539H156.995V62.6661H138.564L120.317 38.8898L112.484 26.7252H111.286L112.023 38.5212V62.6661Z" fill="#F3DC13"/>
<path d="M89.1638 62.6661H71.8385V0.921539H89.1638V62.6661Z" fill="#F3DC13"/>
<path d="M34.0977 63.5877C12.6254 63.5877 0 51.0544 0 31.7938C0 12.5332 12.6254 0 34.0977 0C54.8328 0 67.2739 9.86069 67.2739 26.3566V27.9233H47.9211V26.3566C47.9211 19.3528 44.6035 16.5881 34.3742 16.5881C21.841 16.5881 18.4312 19.5371 18.4312 31.7938C18.4312 44.0506 21.841 46.9996 34.3742 46.9996C44.6035 46.9996 47.9211 44.2349 47.9211 37.231V35.6644H67.2739V37.231C67.2739 53.727 54.8328 63.5877 34.0977 63.5877Z" fill="#F3DC13"/>
</svg>
