<svg width="46" height="43" viewBox="0 0 46 43" fill="none" xmlns="http://www.w3.org/2000/svg">
<path d="M44.736 19.8233H45.236V19.3233V18.3514C45.236 13.0964 43.2477 8.85851 39.5798 5.94638C35.9264 3.04585 30.6579 1.5 24.1539 1.5C17.3968 1.5 11.9742 3.47342 8.23734 7.01863C4.49783 10.5664 2.5 15.6377 2.5 21.7245C2.5 27.8114 4.49783 32.8827 8.23734 36.4304C11.9742 39.9757 17.3968 41.9491 24.1539 41.9491C30.6579 41.9491 35.9264 40.4032 39.5798 37.5027C43.2477 34.5906 45.236 30.3527 45.236 25.0977V24.1258V23.6258H44.736H32.7297H32.2297V24.1258V25.0977C32.2297 27.1976 31.7343 28.5198 30.6091 29.356C29.4398 30.225 27.4827 30.658 24.3254 30.658C20.4317 30.658 18.1492 30.188 16.8062 28.9281C15.4738 27.6782 14.9345 25.522 14.9345 21.7245C14.9345 17.9271 15.4738 15.7709 16.8062 14.521C18.1492 13.2611 20.4317 12.7911 24.3254 12.7911C27.4827 12.7911 29.4398 13.2241 30.6091 14.0931C31.7343 14.9293 32.2297 16.2514 32.2297 18.3514V19.3233V19.8233H32.7297H44.736Z" stroke="white"/>
<path d="M21.1539 39.4491C7.83264 39.4491 0 31.6736 0 19.7245C0 7.77547 7.83264 0 21.1539 0C34.0177 0 41.736 6.11746 41.736 16.3514V17.3233H29.7297V16.3514C29.7297 12.0062 27.6715 10.2911 21.3254 10.2911C13.5499 10.2911 11.4345 12.1206 11.4345 19.7245C11.4345 27.3285 13.5499 29.158 21.3254 29.158C27.6715 29.158 29.7297 27.4428 29.7297 23.0977V22.1258H41.736V23.0977C41.736 33.3316 34.0177 39.4491 21.1539 39.4491Z" fill="#F3DC13"/>
</svg>
