<svg width="29" height="29" viewBox="0 0 29 29" fill="none" xmlns="http://www.w3.org/2000/svg">
<path fill-rule="evenodd" clip-rule="evenodd" d="M25.6553 12.8276C25.6553 15.3157 24.9469 17.6384 23.7208 19.6049L22.0562 17.9404C22.8971 16.4259 23.376 14.6827 23.376 12.8276C23.376 7.00194 18.6533 2.27931 12.8276 2.27931C7.00196 2.27931 2.27931 7.00194 2.27931 12.8276C2.27931 18.6533 7.00196 23.3759 12.8276 23.3759C16.085 23.3759 18.9976 21.8994 20.9325 19.5792L21.5079 20.1545L21.5219 20.1406L29 27.6187L27.6187 29L21.1813 22.5626C18.9369 24.4903 16.0183 25.6552 12.8276 25.6552C5.74313 25.6552 0 19.9121 0 12.8276C0 5.74312 5.74313 0 12.8276 0C19.9121 0 25.6553 5.74312 25.6553 12.8276Z" fill="#D7D4D4"/>
</svg>
